<?xml version="1.0" encoding="UTF-8" standalone="no"?>
<svg width="142px" height="39px" viewBox="0 0 142 39" version="1.1" xmlns="http://www.w3.org/2000/svg" xmlns:xlink="http://www.w3.org/1999/xlink">
    <!-- Generator: Sketch 3.8.3 (29802) - http://www.bohemiancoding.com/sketch -->
    <title>diners-logo</title>
    <desc>Created with Sketch.</desc>
    <defs>
        <polygon id="path-1" points="46.5298 39 0 39 0 0 23.2649 0 46.5298 0 46.5298 39"></polygon>
    </defs>
    <g id="Page-1" stroke="none" stroke-width="1" fill="none" fill-rule="evenodd">
        <g id="diners-logo">
            <g id="Group-3">
                <mask id="mask-2" fill="white">
                    <use xlink:href="#path-1"></use>
                </mask>
                <g id="Clip-2"></g>
                <path d="M27.2598,39 C37.3298,39.05 46.5298,30.311 46.5298,19.67 C46.5298,8.04 37.3298,0 27.2598,0 L18.5898,0 C8.3898,0 -0.0002,8.04 -0.0002,19.67 C-0.0002,30.311 8.3898,39.05 18.5898,39 L27.2598,39 Z" id="Fill-1" fill="#004C97" mask="url(#mask-2)"></path>
            </g>
            <path d="M22.46,30.0293 L22.46,8.9003 C26.47,10.5293 29.32,14.6403 29.32,19.4703 C29.32,24.2903 26.47,28.4003 22.46,30.0293 M7.94,19.4703 C7.95,14.6503 10.79,10.5403 14.8,8.9003 L14.8,30.0193 C10.79,28.3903 7.95,24.2903 7.94,19.4703 M18.63,1.6103 C9.31,1.6203 1.76,9.6103 1.76,19.4703 C1.76,29.3203 9.31,37.3103 18.63,37.3203 C27.95,37.3103 35.5,29.3203 35.5,19.4703 C35.5,9.6103 27.95,1.6203 18.63,1.6103" id="Fill-4" fill="#FFFFFF"></path>
            <path d="M121.2695,19.48 C121.3395,20.09 122.1405,19.94 122.5705,20.02 L122.5705,20.55 L118.4595,20.55 L118.4595,20.02 C118.8205,19.94 119.3305,20.09 119.6895,19.64 L119.6895,6.91 C119.6895,6.61 119.0405,6.07 118.6795,6.15 L118.6795,5.85 C119.4705,5.54 120.3395,5.08 121.2005,4.7 L121.2695,19.48 Z M134.8905,12.47 C136.0495,11.56 136.8395,11.1 137.8495,11.1 C140.3705,11.1 141.4505,13.46 141.4505,15.37 C141.4505,17.96 139.7205,20.85 136.7695,20.85 C135.1095,20.85 134.3205,20.09 134.0295,20.09 C133.8795,20.09 133.5995,20.55 133.4505,20.55 C133.1605,20.55 133.0895,20.32 133.0895,20.17 C133.0895,19.94 133.2405,19.03 133.3105,18.49 L133.3795,7.9 C133.3105,7.37 133.2405,6 132.3705,6.15 L132.3705,5.77 C133.1605,5.47 134.0295,5.08 134.8905,4.7 L134.8905,12.47 Z M113.7095,5.77 C114.7905,5.85 116.2995,6.38 117.3795,6.84 C117.5195,7.67 117.5995,8.59 117.6695,9.5 L117.5995,9.81 L117.1605,9.81 C116.7305,7.07 114.7905,6.38 112.9805,6.38 C109.1695,6.38 107.4395,9.66 107.4395,12.93 C107.4395,16.06 109.3105,20.17 113.2695,20.17 C114.9995,20.17 116.5195,19.25 117.2405,16.66 C117.5195,16.66 117.5995,16.74 117.6695,16.74 L117.6695,16.89 C117.5195,17.88 117.3795,18.8 117.1605,19.71 C115.8705,20.32 114.1405,20.85 112.8395,20.85 C110.3205,20.85 106.5705,19.48 105.7095,15.6 C105.6295,15.06 105.4195,14.07 105.4195,13.92 L105.4195,12.32 C105.9905,7.83 109.6695,5.77 112.8395,5.77 L113.7095,5.77 Z M67.5095,6.84 C67.5095,7.52 66.8595,7.83 66.4995,7.83 C65.9305,7.83 65.6405,7.29 65.6405,6.84 C65.6405,6.3 65.9305,5.85 66.5695,5.85 C67.0095,5.85 67.5095,6.3 67.5095,6.84 L67.5095,6.84 Z M56.5605,6.07 C60.8105,6.3 63.7595,9.5 63.7595,13.24 C63.7595,18.26 59.5805,20.55 55.9795,20.55 L50.2095,20.55 L50.2095,20.02 C50.6495,20.09 52.1605,19.56 52.0195,18.72 L52.0195,7.75 C51.7995,6.76 51.0805,6.38 50.2095,6.61 L50.2095,6.07 L56.5605,6.07 Z M61.5295,13.39 C61.5295,16.97 59.7295,19.79 56.0495,19.79 C55.3305,19.79 53.9595,19.71 53.9595,18.42 L53.9595,6.76 C54.3905,6.84 55.1205,6.76 55.3305,6.76 C59.3705,6.76 61.5295,9.58 61.5295,13.39 L61.5295,13.39 Z M67.2905,11.1 L67.2905,19.33 C67.2905,20.17 68.2995,19.94 68.6605,20.02 L68.6605,20.55 L64.4795,20.55 L64.4795,20.02 C64.7695,19.94 65.5695,20.17 65.7795,19.56 L65.7795,13.24 C65.7095,13.16 65.6405,12.86 65.4905,12.78 C65.3505,12.47 64.7695,12.17 64.7695,12.09 C64.7695,11.79 66.8595,11.1 66.9305,11.1 L67.2905,11.1 Z M72.0495,11.1 L72.1205,12.63 C73.3495,11.48 74.2795,11.1 75.4395,11.1 C76.8795,11.1 77.7405,12.09 77.7405,13.54 L77.7405,19.64 C78.1795,20.25 78.6095,19.86 79.0405,20.02 L79.0405,20.47 L74.8595,20.47 L74.8595,20.02 C75.1505,19.94 75.9395,20.09 76.1605,19.64 L76.1605,13.31 C75.8705,12.25 74.9295,12.17 74.4295,12.17 C73.7095,12.17 72.6295,12.63 72.0495,13.24 L72.0495,19.41 C72.2695,20.17 72.9195,19.94 73.4195,20.02 L73.4195,20.55 L69.2405,20.55 L69.2405,20.02 C69.5295,19.94 70.3195,20.17 70.5405,19.56 L70.5405,13.39 C70.4705,13.24 70.3195,12.93 70.1095,12.78 C69.8195,12.55 69.3795,12.55 69.3795,12.25 C69.3795,11.86 71.4705,11.26 71.8305,11.1 L72.0495,11.1 Z M84.3705,11.33 C84.9505,11.56 86.2495,12.86 86.2495,13.69 L86.2495,14.76 L80.5495,14.76 L80.5495,16.28 C80.8395,18.19 81.9995,19.64 83.4395,19.64 C84.6605,19.64 85.2405,18.72 86.2495,18.26 C86.2495,18.34 86.3205,18.26 86.3205,18.49 C86.3205,19.18 84.2995,20.47 84.0095,20.55 C83.5805,20.7 82.9295,20.85 82.7205,20.85 C81.2795,20.85 79.5495,19.86 79.1895,17.81 C79.1895,17.58 79.0405,17.2 79.0405,17.05 L79.0405,15.37 C79.2595,12.63 81.0605,11.1 83.0095,11.1 C83.2205,11.1 83.9395,11.18 84.3705,11.33 L84.3705,11.33 Z M89.7795,11.1 C89.7095,11.18 89.7095,11.26 89.7095,11.33 C89.7795,11.41 89.7795,13.08 89.8495,13.16 C90.4995,11.86 91.2905,11.1 92.2305,11.1 C92.8795,11.1 93.4505,11.41 93.4505,12.17 C93.4505,12.78 92.8795,13.16 92.5195,13.16 C92.2995,13.16 91.4395,12.7 91.2205,12.7 C90.5705,12.7 89.7795,13.39 89.7795,14.07 L89.7795,19.64 C89.8495,19.79 89.9995,20.02 90.2095,20.02 L91.7995,20.02 L91.7995,20.55 L86.8205,20.55 L86.8205,20.02 C87.1795,19.94 88.4105,20.17 88.2695,19.25 L88.2695,13.46 C88.2695,12.93 87.6895,12.7 87.1795,12.55 L87.1795,12.25 C87.9105,11.94 88.7005,11.48 89.4195,11.1 L89.7795,11.1 Z M99.2905,11.71 C99.3595,12.32 99.4395,13.01 99.5095,13.69 L99.0805,13.77 C98.7905,12.25 97.9905,11.71 96.9905,11.71 C96.1895,11.71 95.4005,12.02 95.4005,13.08 C95.4005,15.45 99.9395,14.91 99.9395,17.96 C99.9395,20.17 97.7795,20.85 96.5495,20.85 C95.8305,20.85 94.6795,20.47 94.1795,20.09 C94.1795,19.79 94.0295,19.03 94.0295,18.87 L94.0295,17.73 C94.0995,17.73 94.1795,17.73 94.2495,17.66 C94.6095,19.41 95.5405,20.17 96.7695,20.17 C97.7095,20.17 98.3595,19.64 98.3595,18.65 C98.3595,16.28 94.0995,16.89 94.0995,13.69 C94.0995,11.71 95.7595,11.1 97.1295,11.1 C97.9195,11.1 98.6405,11.18 99.2905,11.71 L99.2905,11.71 Z M125.3105,17.66 C125.4505,19.18 126.0295,19.71 126.9705,19.71 C127.8305,19.71 128.5495,19.1 129.4195,18.49 L129.4195,12.78 C128.9105,12.17 128.2595,12.17 127.7595,12.02 L127.7595,11.64 L130.9295,11.41 L130.9295,19.71 C131.4295,19.79 131.8705,19.79 132.2995,19.71 L132.2995,20.17 C131.3595,20.32 130.4195,20.55 129.4905,20.85 C129.4195,20.779 129.4195,20.63 129.3395,19.1 C128.2595,20.09 127.0405,20.85 125.9595,20.85 C124.9505,20.85 123.7905,20.02 123.7905,18.95 L123.7905,12.7 C123.7205,12.25 123.0705,11.86 122.6405,11.94 L122.6405,11.41 L125.3105,11.41 L125.3105,17.66 Z M84.5195,13.46 C84.5195,13.62 84.5195,14 84.2995,14.07 L80.7005,14.07 C80.8395,12.47 81.8495,11.79 82.8595,11.79 C84.0095,11.79 84.5195,12.63 84.5195,13.46 L84.5195,13.46 Z M139.8705,16.28 C139.8705,17.88 138.9995,20.25 136.9805,20.25 C136.7695,20.25 136.4105,20.17 136.2595,20.09 C135.9005,20.02 134.9595,18.95 134.9595,18.57 L134.9595,13.16 C135.6095,12.47 136.1205,12.25 136.7695,12.25 C138.8595,12.25 139.8705,14.91 139.8705,16.28 L139.8705,16.28 Z M63.1895,24.74 C63.2595,24.82 63.3305,24.971 63.4795,25.04 L69.5295,25.04 C69.7405,24.971 69.8905,24.82 70.0295,24.74 C70.1805,25.811 70.0295,25.96 70.0295,26.641 C69.9595,26.641 69.8195,26.721 69.6695,26.721 C69.5295,26.49 69.6005,25.65 69.0195,25.65 L67.2205,25.65 L67.2205,32.05 C67.3705,32.59 68.0195,32.59 68.2995,32.59 L68.2995,32.971 L64.7005,32.971 L64.7005,32.59 C65.2005,32.66 65.7095,32.59 65.7795,31.9 L65.7795,25.65 L63.6895,25.65 C63.1895,25.73 63.1095,26.189 63.1095,26.721 L62.8305,26.721 C62.8305,25.65 62.8995,25.2 62.8305,24.74 L63.1895,24.74 Z M100.3705,24.74 C100.3705,24.82 100.4505,25.04 100.6605,25.04 L106.6405,25.04 C106.7905,24.971 106.9295,24.891 106.9995,24.74 L107.3595,24.74 C107.0805,25.43 107.4395,26.109 106.9995,26.721 L106.7905,26.721 C106.7905,26.57 106.7905,25.65 106.2095,25.65 L104.3395,25.65 L104.3395,31.9 C104.3395,32.51 105.0605,32.59 105.4195,32.59 L105.4195,32.971 L101.8105,32.971 L101.8105,32.59 C102.0295,32.51 102.7495,32.66 102.9005,32.05 L102.9005,25.65 L100.8105,25.65 C100.2305,25.65 100.2995,26.42 100.1605,26.721 L99.9395,26.721 C99.9395,25.811 100.0095,25.27 99.9395,24.74 L100.3705,24.74 Z M100.0095,32.279 C100.0805,32.51 100.3705,32.59 100.7305,32.59 L100.7305,32.971 L97.6295,32.971 L97.6295,32.59 C98.1405,32.66 98.3595,32.43 98.3595,32.13 C98.3595,31.98 97.9905,30.84 97.7095,30.15 L95.4705,30.15 C95.1795,30.84 94.8205,31.98 94.8205,32.13 C94.8205,32.59 95.6205,32.59 95.7595,32.59 L95.7595,32.971 L93.2405,32.971 L93.2405,32.59 C93.8105,32.66 94.2495,31.67 94.3905,31.221 C94.9705,29.16 95.7595,27.25 96.3395,25.27 C96.7005,25.12 97.1295,24.891 97.4905,24.82 C98.3595,27.25 98.9995,29.77 100.0095,32.279 L100.0095,32.279 Z M134.9595,32.359 C135.0405,32.43 135.3205,32.59 135.6095,32.59 L135.6095,32.971 L132.5095,32.971 L132.5095,32.59 C133.0195,32.66 133.2405,32.43 133.2405,32.13 C133.2405,31.98 132.8705,30.84 132.5895,30.15 L130.3495,30.15 C130.0605,30.76 129.7005,31.9 129.7005,32.13 C129.7005,32.59 130.4995,32.59 130.6405,32.59 L130.6405,32.971 L128.1205,32.971 L128.1205,32.59 C129.2695,32.51 129.2695,30.91 129.6295,30.15 C130.2095,28.55 130.7095,26.87 131.2205,25.27 C131.5805,25.12 132.0095,24.891 132.3705,24.82 C133.2405,27.33 133.9595,29.84 134.9595,32.359 L134.9595,32.359 Z M119.3305,28.779 C119.3305,31.52 117.5995,33.12 115.2205,33.12 C112.9805,33.12 111.2495,31.6 111.2495,29.08 C111.2495,26.49 112.9805,24.891 115.2905,24.891 C117.3795,24.891 119.3305,26.189 119.3305,28.779 L119.3305,28.779 Z M53.4595,25.04 L53.4595,25.43 C53.2405,25.35 52.6695,25.35 52.5195,25.811 L52.5195,32.21 C52.6695,32.59 53.2405,32.59 53.4595,32.59 L53.4595,32.971 L50.1405,32.971 L50.1405,32.59 C50.2905,32.59 50.8595,32.59 51.0805,32.13 L51.0805,25.811 C50.8595,25.35 50.2905,25.35 50.1405,25.43 L50.1405,25.04 L53.4595,25.04 Z M56.0495,25.04 L60.6605,30.529 L60.7405,25.96 C60.5195,25.58 59.9395,25.27 59.5805,25.43 L59.5805,25.04 L62.4705,25.04 L62.4705,25.43 C62.1095,25.43 61.3905,25.65 61.3905,26.189 L61.3905,33.12 L60.9505,33.12 L55.4795,26.8 L55.4795,31.221 C55.3995,31.98 55.9105,32.74 56.7005,32.59 L56.7005,32.971 L53.8195,32.971 L53.8195,32.59 C54.1095,32.66 54.8995,32.21 54.8995,31.75 L54.8995,26.04 C54.7595,25.73 54.1095,25.43 53.8195,25.43 L53.8195,25.04 L56.0495,25.04 Z M75.9395,25.04 L75.9395,26.87 C75.8705,26.87 75.7305,26.87 75.5805,26.95 C75.6505,26.34 75.2205,25.58 74.4995,25.58 L72.8395,25.58 L72.8395,28.471 L74.2795,28.471 C74.6505,28.32 74.9295,27.79 74.8595,27.48 L75.2905,27.48 L75.2905,30.15 C75.2205,30.15 75.1505,30.23 74.9295,30.23 C74.7205,29.54 74.7205,29.08 74.0705,29.08 L72.8395,29.08 L72.8395,31.98 C73.1295,32.51 73.8495,32.43 74.1405,32.43 C74.8595,32.43 76.0895,32.279 76.2305,31.061 L76.5195,31.061 C76.5895,31.141 76.5895,31.061 76.5895,31.221 C76.5895,31.439 76.3705,32.43 76.2305,32.971 L70.5405,32.971 L70.5405,32.59 C70.6805,32.59 71.3305,32.43 71.3995,32.21 L71.3995,25.811 C71.3305,25.43 70.6805,25.35 70.5405,25.43 L70.5405,25.04 L75.9395,25.04 Z M80.9195,25.04 C82.4295,25.12 83.0095,25.88 83.0095,27.029 C83.0095,27.79 82.6405,28.471 81.5605,29.08 C82.4995,30.23 83.0805,32.279 84.3705,32.59 L84.3705,32.971 L82.2795,32.971 L80.0495,29.311 L79.4005,29.311 L79.4005,31.83 C79.4005,32.51 79.9805,32.59 80.4805,32.59 L80.4805,32.971 L77.0995,32.971 L77.0995,32.59 C77.3795,32.59 77.6695,32.59 77.9595,32.21 L77.9595,25.811 C77.6695,25.35 77.3795,25.35 77.0995,25.43 L77.0995,25.04 L80.9195,25.04 Z M86.7495,25.04 L91.6505,30.529 L91.6505,26.42 C91.6505,25.811 90.9295,25.2 90.4295,25.43 L90.4295,25.04 L93.3105,25.04 L93.3105,25.43 C92.7305,25.35 92.2305,25.73 92.2305,26.26 L92.2305,33.12 L91.7995,33.12 L86.3905,26.87 L86.3905,31.83 C86.3205,32.43 87.2595,32.66 87.5495,32.59 L87.5495,32.971 L84.6605,32.971 L84.6605,32.59 C85.0195,32.66 85.6695,32.279 85.7405,31.83 L85.7405,26.04 C85.5995,25.65 85.0195,25.27 84.6605,25.43 L84.6605,25.04 L86.7495,25.04 Z M110.9705,25.04 L110.9705,25.43 C110.7495,25.43 110.0295,25.27 110.0295,25.88 L110.0295,32.05 C110.0995,32.51 110.6095,32.59 110.9705,32.59 L110.9705,32.971 L107.7205,32.971 L107.7205,32.59 C107.8705,32.59 108.5195,32.43 108.5895,32.21 L108.5895,25.73 C108.2995,25.5 107.8705,25.35 107.7205,25.43 L107.7205,25.04 L110.9705,25.04 Z M121.6295,25.04 L126.4595,30.609 L126.5295,26.26 C126.5995,25.73 125.6695,25.2 125.3105,25.43 L125.3105,25.04 L128.1895,25.04 L128.1895,25.43 C127.6095,25.35 127.1095,25.73 127.1095,26.26 L127.1095,33.12 L126.6795,33.12 L121.2695,26.87 L121.2695,31.83 C121.2005,32.43 122.1405,32.66 122.4295,32.59 L122.4295,32.971 L119.6095,32.971 L119.6095,32.59 C119.8305,32.66 120.5495,32.279 120.6205,31.83 L120.6205,26.04 C120.4805,25.65 120.0495,25.35 119.6095,25.43 L119.6095,25.04 L121.6295,25.04 Z M139.2905,25.04 L139.2905,25.43 C138.7095,25.35 138.2795,25.35 138.2795,26.04 L138.2795,31.67 C138.1405,32.51 139.2205,32.43 139.5805,32.43 C140.4395,32.43 141.3105,32.51 141.6695,30.99 L142.0295,30.99 C141.8795,31.67 141.8105,32.279 141.6695,32.971 L135.9705,32.971 L135.9705,32.59 C136.1895,32.66 136.9105,32.359 136.9105,31.98 L136.9105,25.88 C136.7695,25.43 136.2595,25.35 135.9705,25.43 L135.9705,25.04 L139.2905,25.04 Z M117.7405,29.01 C117.7405,30.609 117.2405,32.51 115.3595,32.51 C113.2005,32.51 112.8395,29.689 112.8395,28.63 C112.8395,27.25 113.2695,25.5 115.1505,25.5 C117.1605,25.5 117.7405,27.939 117.7405,29.01 L117.7405,29.01 Z M80.2695,25.58 C81.0605,25.58 81.4905,26.49 81.4905,27.1 C81.4905,27.859 81.1295,28.779 80.2695,28.779 L79.4705,28.779 L79.4705,25.58 L80.2695,25.58 Z M97.4195,29.391 L95.6895,29.391 L96.5495,26.57 L97.4195,29.391 Z M132.2995,29.391 L130.5705,29.391 C130.8595,28.471 131.2205,27.48 131.4295,26.57 L132.2995,29.391 Z" id="Fill-6" fill="#000000"></path>
        </g>
    </g>
</svg>